<svg xmlns="http://www.w3.org/2000/svg" width="24" height="24" viewBox="0 0 24 24" fill="none">
  <path d="M3.75 20.625V19.5H10.875V18.75H1.875C1.77554 18.75 1.68016 18.7105 1.60984 18.6402C1.53951 18.5698 1.5 18.4745 1.5 18.375V4.5H18.75V10.875H19.5V6.375H21V10.125H21.75V4.125C21.75 3.82663 21.6315 3.54048 21.4205 3.3295C21.2095 3.11853 20.9234 3 20.625 3H19.5V1.875C19.5 1.57663 19.3815 1.29048 19.1705 1.0795C18.9595 0.868526 18.6734 0.75 18.375 0.75H1.875C1.57663 0.75 1.29048 0.868526 1.0795 1.0795C0.868526 1.29048 0.75 1.57663 0.75 1.875V18.375C0.75 18.6734 0.868526 18.9595 1.0795 19.1705C1.29048 19.3815 1.57663 19.5 1.875 19.5H3V20.625C3 20.9234 3.11853 21.2095 3.3295 21.4205C3.54048 21.6315 3.82663 21.75 4.125 21.75H13.5V21H4.125C4.02554 21 3.93016 20.9605 3.85984 20.8902C3.78951 20.8198 3.75 20.7245 3.75 20.625ZM20.625 3.75C20.7245 3.75 20.8198 3.78951 20.8902 3.85984C20.9605 3.93016 21 4.02554 21 4.125V5.625H19.5V3.75H20.625ZM1.875 1.5H18.375C18.4745 1.5 18.5698 1.53951 18.6402 1.60984C18.7105 1.68016 18.75 1.77554 18.75 1.875V3.75H1.5V1.875C1.5 1.77554 1.53951 1.68016 1.60984 1.60984C1.68016 1.53951 1.77554 1.5 1.875 1.5Z" fill="#F17C04" style="fill:#F17C04;fill:color(display-p3 0.9451 0.4863 0.0157);fill-opacity:1;"/>
  <path d="M21 20.625C21 20.7245 20.9605 20.8198 20.8902 20.8902C20.8198 20.9605 20.7245 21 20.625 21H18.375V21.75H20.625C20.9234 21.75 21.2095 21.6315 21.4205 21.4205C21.6315 21.2095 21.75 20.9234 21.75 20.625V19.125H21V20.625Z" fill="#F17C04" style="fill:#F17C04;fill:color(display-p3 0.9451 0.4863 0.0157);fill-opacity:1;"/>
  <path d="M3 2.25H3.75V3H3V2.25Z" fill="#F17C04" style="fill:#F17C04;fill:color(display-p3 0.9451 0.4863 0.0157);fill-opacity:1;"/>
  <path d="M4.5 2.25H5.25V3H4.5V2.25Z" fill="#F17C04" style="fill:#F17C04;fill:color(display-p3 0.9451 0.4863 0.0157);fill-opacity:1;"/>
  <path d="M6 2.25H6.75V3H6V2.25Z" fill="#F17C04" style="fill:#F17C04;fill:color(display-p3 0.9451 0.4863 0.0157);fill-opacity:1;"/>
  <path d="M7.875 10.5C7.97446 10.5 8.06984 10.4605 8.14017 10.3902C8.21049 10.3198 8.25 10.2245 8.25 10.125V6.375C8.25 6.27554 8.21049 6.18016 8.14017 6.10983C8.06984 6.03951 7.97446 6 7.875 6H3.375C3.27554 6 3.18016 6.03951 3.10984 6.10983C3.03951 6.18016 3 6.27554 3 6.375V10.125C3 10.2245 3.03951 10.3198 3.10984 10.3902C3.18016 10.4605 3.27554 10.5 3.375 10.5H7.875ZM3.75 6.75H7.5V9.75H3.75V6.75Z" fill="#F17C04" style="fill:#F17C04;fill:color(display-p3 0.9451 0.4863 0.0157);fill-opacity:1;"/>
  <path d="M9.75 6H10.5V6.75H9.75V6Z" fill="#F17C04" style="fill:#F17C04;fill:color(display-p3 0.9451 0.4863 0.0157);fill-opacity:1;"/>
  <path d="M11.25 6H12V6.75H11.25V6Z" fill="#F17C04" style="fill:#F17C04;fill:color(display-p3 0.9451 0.4863 0.0157);fill-opacity:1;"/>
  <path d="M12.75 6H15.75V6.75H12.75V6Z" fill="#F17C04" style="fill:#F17C04;fill:color(display-p3 0.9451 0.4863 0.0157);fill-opacity:1;"/>
  <path d="M9.75 7.5H15.75V8.25H9.75V7.5Z" fill="#F17C04" style="fill:#F17C04;fill:color(display-p3 0.9451 0.4863 0.0157);fill-opacity:1;"/>
  <path d="M9.75 9H15.75V9.75H9.75V9Z" fill="#F17C04" style="fill:#F17C04;fill:color(display-p3 0.9451 0.4863 0.0157);fill-opacity:1;"/>
  <path d="M9.75 10.5H15.75V11.25H9.75V10.5Z" fill="#F17C04" style="fill:#F17C04;fill:color(display-p3 0.9451 0.4863 0.0157);fill-opacity:1;"/>
  <path d="M3 12H9.75V12.75H3V12Z" fill="#F17C04" style="fill:#F17C04;fill:color(display-p3 0.9451 0.4863 0.0157);fill-opacity:1;"/>
  <path d="M3 13.5H9.75V14.25H3V13.5Z" fill="#F17C04" style="fill:#F17C04;fill:color(display-p3 0.9451 0.4863 0.0157);fill-opacity:1;"/>
  <path d="M3 15H9.75V15.75H3V15Z" fill="#F17C04" style="fill:#F17C04;fill:color(display-p3 0.9451 0.4863 0.0157);fill-opacity:1;"/>
  <path d="M3 16.5H9.75V17.25H3V16.5Z" fill="#F17C04" style="fill:#F17C04;fill:color(display-p3 0.9451 0.4863 0.0157);fill-opacity:1;"/>
  <path d="M16.4265 18.9244L19.2634 18.5156C19.4365 18.6978 19.6659 18.8163 19.9146 18.8522C20.1633 18.888 20.4169 18.8391 20.6344 18.7133C20.8927 18.5638 21.0812 18.318 21.1585 18.0298C21.2359 17.7416 21.1957 17.4344 21.0469 17.1758L20.1094 15.552C20.3679 15.4028 20.5567 15.157 20.634 14.8687C20.7114 14.5804 20.671 14.2731 20.5219 14.0145C20.3727 13.7559 20.1269 13.5672 19.8385 13.4898C19.5502 13.4125 19.2429 13.4528 18.9844 13.602L18.0469 11.9783C17.9078 11.7436 17.6882 11.5674 17.429 11.4826C17.1697 11.3977 16.8885 11.4099 16.6376 11.517C16.3867 11.624 16.1832 11.8186 16.065 12.0644C15.9469 12.3103 15.9221 12.5907 15.9952 12.8535L13.6755 15.801L11.7892 16.8885C11.5309 17.0379 11.3424 17.2837 11.2651 17.572C11.1877 17.8602 11.2279 18.1673 11.3767 18.426L12.1267 19.725C12.2005 19.8531 12.2989 19.9654 12.4161 20.0555C12.5334 20.1455 12.6672 20.2116 12.81 20.2499C12.9528 20.2882 13.1017 20.298 13.2483 20.2787C13.3949 20.2595 13.5362 20.2115 13.6642 20.1375L14.9767 22.4108C15.0505 22.5389 15.1489 22.6511 15.2661 22.7412C15.3834 22.8313 15.5172 22.8974 15.66 22.9357C15.8028 22.974 15.9517 22.9838 16.0983 22.9645C16.2449 22.9452 16.3862 22.8972 16.5142 22.8233L17.1637 22.4483C17.2918 22.3744 17.4041 22.2761 17.4942 22.1589C17.5843 22.0416 17.6504 21.9078 17.6887 21.765C17.727 21.6222 17.7368 21.4733 17.7175 21.3267C17.6982 21.1801 17.6502 21.0388 17.5762 20.9108L16.4265 18.9244ZM19.8709 14.3906C19.9206 14.4767 19.9341 14.579 19.9085 14.6751C19.8828 14.7712 19.82 14.8531 19.734 14.9029L19.359 14.2534C19.4451 14.2038 19.5473 14.1904 19.6433 14.2161C19.7393 14.2418 19.8211 14.3046 19.8709 14.3906ZM16.8844 12.2183C16.9704 12.1685 17.0728 12.155 17.1688 12.1806C17.2649 12.2063 17.3468 12.2691 17.3966 12.3551L20.3966 17.5515C20.423 17.5942 20.4406 17.6417 20.4483 17.6914C20.456 17.741 20.4536 17.7916 20.4414 17.8403C20.4291 17.889 20.4072 17.9347 20.377 17.9748C20.3467 18.0148 20.3088 18.0484 20.2653 18.0735C20.2218 18.0986 20.1738 18.1147 20.1239 18.1209C20.0741 18.1271 20.0236 18.1233 19.9753 18.1095C19.927 18.0958 19.882 18.0726 19.8428 18.0411C19.8037 18.0097 19.7713 17.9707 19.7475 17.9265L16.7475 12.7301C16.6978 12.6441 16.6844 12.5418 16.71 12.4459C16.7357 12.3499 16.7984 12.268 16.8844 12.2183ZM16.3747 13.5848L18.8209 17.8223L15.6225 18.2828L14.3764 16.125L16.3747 13.5848ZM13.7872 16.6043L14.9122 18.5543L14.2627 18.9293L13.1377 16.9793L13.7872 16.6043ZM12.7747 19.353L12.0247 18.054C11.975 17.9679 11.9615 17.8655 11.9873 17.7695C12.013 17.6734 12.0759 17.5915 12.162 17.5418L12.4867 17.3543L13.6117 19.3043L13.287 19.4918C13.2008 19.5408 13.0988 19.5537 13.0032 19.5277C12.9075 19.5017 12.8261 19.4389 12.7766 19.353H12.7747ZM16.7872 21.8003L16.1377 22.1753C16.0516 22.225 15.9492 22.2385 15.8532 22.2127C15.7571 22.187 15.6752 22.1241 15.6255 22.038L14.313 19.7648L15.5505 19.0523L15.6255 19.0414L16.9234 21.2895C16.9727 21.3753 16.9862 21.4772 16.9607 21.5729C16.9353 21.6685 16.8731 21.7503 16.7876 21.8003H16.7872Z" fill="#F17C04" style="fill:#F17C04;fill:color(display-p3 0.9451 0.4863 0.0157);fill-opacity:1;"/>
  <path d="M20.9824 13.3163L22.2814 12.5663L22.6564 13.2158L21.3574 13.9658L20.9824 13.3163Z" fill="#F17C04" style="fill:#F17C04;fill:color(display-p3 0.9451 0.4863 0.0157);fill-opacity:1;"/>
  <path d="M19.7373 12.433L20.1494 10.8961L20.8738 11.0904L20.4617 12.6272L19.7373 12.433Z" fill="#F17C04" style="fill:#F17C04;fill:color(display-p3 0.9451 0.4863 0.0157);fill-opacity:1;"/>
  <path d="M21.5039 15.4907L21.6981 14.7663L23.235 15.1784L23.0408 15.9028L21.5039 15.4907Z" fill="#F17C04" style="fill:#F17C04;fill:color(display-p3 0.9451 0.4863 0.0157);fill-opacity:1;"/>
</svg>