<svg xmlns="http://www.w3.org/2000/svg" width="24" height="24" viewBox="0 0 24 24" fill="none">
  <path fill-rule="evenodd" clip-rule="evenodd" d="M15.4284 1.84615H11.1428V0.923077C11.1428 0.413538 10.7588 0 10.2856 0C9.81248 0 9.42849 0.413538 9.42849 0.923077V1.84615H5.14281V0.923077C5.14281 0.413538 4.75881 0 4.28568 0C3.81254 0 3.42854 0.413538 3.42854 0.923077V1.84615H2.57141C1.88913 1.84615 1.23513 2.13784 0.75342 2.65754C0.270853 3.17631 0 3.88062 0 4.61538V21.2308C0 21.9655 0.270853 22.6698 0.75342 23.1886C1.23513 23.7083 1.88913 24 2.57141 24H17.9998C18.6821 24 19.3361 23.7083 19.8178 23.1886C20.3004 22.6698 20.5712 21.9655 20.5712 21.2308C20.5712 20.3077 20.5712 19.3846 20.5712 19.3846C20.5712 18.8751 20.1872 18.4615 19.7141 18.4615C19.241 18.4615 18.857 18.8751 18.857 19.3846V21.2308C18.857 21.4754 18.767 21.7108 18.6058 21.8834C18.4456 22.0569 18.227 22.1538 17.9998 22.1538H2.57141C2.34426 22.1538 2.12569 22.0569 1.96541 21.8834C1.80427 21.7108 1.71427 21.4754 1.71427 21.2308V7.38462H18.857V8.30769C18.857 8.81723 19.241 9.23077 19.7141 9.23077C20.1872 9.23077 20.5712 8.81723 20.5712 8.30769V4.61538C20.5712 3.08585 19.4201 1.84615 17.9998 1.84615H17.1427V0.923077C17.1427 0.413538 16.7587 0 16.2856 0C15.8124 0 15.4284 0.413538 15.4284 0.923077V1.84615ZM21.0735 12.9231H14.5713C14.0982 12.9231 13.7142 13.3366 13.7142 13.8462C13.7142 14.3557 14.0982 14.7692 14.5713 14.7692H21.0735L19.9653 15.9628C19.631 16.3228 19.631 16.908 19.9653 17.268C20.2995 17.628 20.843 17.628 21.1772 17.268L23.7486 14.4988C24.0838 14.1388 24.0838 13.5535 23.7486 13.1935L21.1772 10.4243C20.843 10.0643 20.2995 10.0643 19.9653 10.4243C19.631 10.7843 19.631 11.3695 19.9653 11.7295L21.0735 12.9231ZM17.9998 3.69231H2.57141C2.34426 3.69231 2.12569 3.78923 1.96541 3.96277C1.80427 4.13538 1.71427 4.37077 1.71427 4.61538V5.53846H18.857V4.61538C18.857 4.10585 18.473 3.69231 17.9998 3.69231Z" fill="#787571" style="fill:#787571;fill:color(display-p3 0.4706 0.4588 0.4431);fill-opacity:1;"/>
</svg>