<svg xmlns="http://www.w3.org/2000/svg" width="24" height="27" viewBox="0 0 24 27" fill="none">
  <path d="M7.13608 24.3227C7.71628 25.0563 8.45561 25.6486 9.29823 26.0546C10.1409 26.4607 11.0647 26.67 12.0001 26.6667C12.9354 26.67 13.8593 26.4607 14.7019 26.0546C15.5446 25.6486 16.2839 25.0563 16.8641 24.3227C13.6361 24.7595 10.364 24.7595 7.13608 24.3227ZM21.0001 9.33333V10.272C21.0001 11.3987 21.3201 12.5 21.9228 13.4373L23.4001 15.7347C24.7481 17.8333 23.7188 20.6853 21.3734 21.348C15.245 23.0835 8.75513 23.0835 2.62675 21.348C0.281416 20.6853 -0.747917 17.8333 0.600083 15.7347L2.07742 13.4373C2.6817 12.4923 3.00237 11.3938 3.00142 10.272V9.33333C3.00142 4.17867 7.03075 0 12.0001 0C16.9694 0 21.0001 4.17867 21.0001 9.33333Z" fill="#787571" style="fill:#787571;fill:color(display-p3 0.4706 0.4588 0.4431);fill-opacity:1;"/>
</svg>