<svg xmlns="http://www.w3.org/2000/svg" width="32" height="32" viewBox="0 0 32 32" fill="none">
  <path d="M13.5887 0.675543C7.36331 0.871223 4.15506 1.89968 2.27562 4.29335C2.11635 4.49814 1.98438 4.69382 1.98438 4.73022C1.98438 4.78938 3.57257 6.38668 4.39625 7.15575C5.84337 8.50731 6.26659 8.88047 7.53624 9.90437C9.42478 11.4243 10.8765 12.3436 12.7923 13.2309C12.8424 13.2537 13.0744 13.3447 13.3065 13.4357C15.0312 14.0819 16.4647 14.1456 18.1121 13.636C20.6423 12.8532 23.7003 10.7963 27.2635 7.47885C28.2647 6.54595 30.0167 4.79848 30.0167 4.73022C30.0167 4.61645 29.4479 3.9293 28.9974 3.50608C28.3603 2.90539 27.3273 2.25009 26.5718 1.96794C26.4763 1.93609 26.2851 1.86328 26.1486 1.80867C25.466 1.54928 24.2555 1.24893 23.2362 1.08511C20.8698 0.707398 17.3021 0.557224 13.5887 0.675543Z" fill="#787571" style="fill:#787571;fill:color(display-p3 0.4706 0.4588 0.4431);fill-opacity:1;"/>
  <path d="M0.737791 7.50623C0.428343 8.64846 0.237214 9.89535 0.0870406 11.752C-0.026727 13.1946 -0.0312777 17.4586 0.0870406 18.8966C0.364634 22.337 0.887965 24.2938 1.97558 25.9457C2.38515 26.5691 3.25433 27.4383 3.87323 27.8479C5.16108 28.6943 6.62185 29.2085 8.78799 29.5635C9.29767 29.65 9.52065 29.6773 10.6083 29.7956C13.0338 30.0595 18.5083 30.0686 21.2114 29.8183C25.0158 29.4634 27.4186 28.6397 28.9931 27.1471C30.7679 25.4679 31.5643 23.2198 31.9147 18.8966C32.0284 17.4586 32.0284 13.2447 31.9147 11.7748C31.8237 10.6098 31.6962 9.5677 31.5597 8.83959C31.4596 8.3026 31.2594 7.45162 31.223 7.41522C31.2139 7.40157 30.868 7.72011 30.4584 8.11603C27.3321 11.165 24.8611 13.1537 22.4492 14.5689C19.2364 16.4484 16.5924 17.0218 13.953 16.412C11.5002 15.8477 8.74248 14.3277 5.71626 11.8704C5.21113 11.4608 4.15082 10.5598 3.80497 10.2458C3.18607 9.68602 2.19402 8.75312 1.54782 8.12058C1.1428 7.72922 0.801501 7.40611 0.787849 7.40611C0.778748 7.40611 0.755994 7.45162 0.737791 7.50623ZM21.8986 20.7943C22.3946 21.0582 22.6631 21.4723 22.6631 21.9911C22.6631 22.5281 22.4037 22.9422 21.9031 23.2062L21.712 23.3108H16.0009H10.2897L10.044 23.1743C9.58891 22.924 9.33407 22.4826 9.33862 21.9684C9.34318 21.3768 9.78004 20.8398 10.3807 20.6896C10.4581 20.6714 13.0247 20.6623 16.0919 20.6623L21.6665 20.6714L21.8986 20.7943Z" fill="#787571" style="fill:#787571;fill:color(display-p3 0.4706 0.4588 0.4431);fill-opacity:1;"/>
</svg>