<svg xmlns="http://www.w3.org/2000/svg" width="57" height="56" viewBox="0 0 57 56" fill="none">
  <circle cx="28.5" cy="28" r="28" fill="#F2F2F2"/>
  <path d="M38.3956 37H18.6044C17.452 37 16.5 36.0656 16.5 34.9344V21.0656C16.5 19.9344 17.452 19 18.6044 19H38.3956C39.548 19 40.5 19.9344 40.5 21.0656V34.9344C40.5 36.0656 39.548 37 38.3956 37ZM18.5543 20.3279C18.1534 20.3279 17.8528 20.623 17.8528 21.0164V34.8852C17.8528 35.2787 18.1534 35.5738 18.5543 35.5738H38.3455C38.7463 35.5738 39.047 35.2787 39.047 34.8852V21.0164C39.047 20.623 38.7463 20.3279 38.3455 20.3279H18.5543Z" fill="#868686"/>
  <path d="M32.0321 27.2128C30.4789 27.2128 29.2764 25.9833 29.2764 24.5079C29.2764 23.0325 30.529 21.803 32.0321 21.803C33.5353 21.803 34.7879 23.0325 34.7879 24.5079C34.7879 25.9833 33.5353 27.2128 32.0321 27.2128ZM32.0321 23.0325C31.2305 23.0325 30.5791 23.6718 30.5791 24.4587C30.5791 25.2456 31.2305 25.8849 32.0321 25.8849C32.8338 25.8849 33.4852 25.2456 33.4852 24.4587C33.4852 23.6718 32.8338 23.0325 32.0321 23.0325ZM35.79 36.7538L24.2159 26.0817L17.6021 32.0817L16.7002 31.1472L24.2159 24.3112L36.6918 35.8194L35.79 36.7538Z" fill="#868686"/>
  <path d="M39.3979 33.2133L35.5399 30.1641L32.3332 32.7706L31.4814 31.7378L35.5399 28.4919L40.1996 32.2296L39.3979 33.2133Z" fill="#868686"/>
</svg>